<svg id="Layer_1" data-name="Layer 1" xmlns="http://www.w3.org/2000/svg" viewBox="0 0 360.76 487.48"><path d="M360.56,77V83.6H195.4a138.38,138.38,0,0,0,17.52,31.84c.91,1.24,3.92,1.3,6,1.3q68,.11,136,.06h5.63v6.49H220l-.75,1.44c5.52,5.85,10.8,12,16.63,17.51,14.86,14.14,15,14,35.45,14h89.17v6.53H264.53c25.56,17.31,53.85,25.67,84.62,28.22l-26.09,3.46.08,1.21h37.25v7h-5.08c-18.16,0-36.33-.11-54.49.08a28.86,28.86,0,0,0-10.11,2,169.88,169.88,0,0,0-45.77,27.13c-.9.74-1.77,1.51-2.6,2.33-.16.16-.07.59-.14,1.5H360.53v6.6h-6c-38.67,0-77.33.05-116-.08-3.83,0-6.68,1-9.08,3.93-7.35,9.16-14.82,18.23-22.25,27.33l1,1.47H360.45v6.83h-5.58c-48.83,0-97.66.06-146.49-.1-3.93,0-6.12,1.11-7.6,4.66-3.82,9.16-7.85,18.22-12.25,28.38h172v6.86h-5.8q-81,0-162-.09c-4.21,0-6.33,1-7,5.38-1.35,9-3,17.95-4.75,27.71H360.49c.09,2.26.17,3.87.27,6.36H187.31c-6.57,0-6.58,0-6.61,6.54,0,3.16,0,6.32,0,9.87H2.1V359.81H181.16c-.87-7.62-1.65-14.48-2.48-21.8H2.21V319.78h172.4c-2.65-7.38-4.79-14-7.49-20.3-.47-1.1-3.32-1.66-5.07-1.67q-48.5-.15-97-.07H2.21v-18H156.38l1-1.27c-4.73-6.69-9.32-13.47-14.33-19.95-.77-1-3.4-.8-5.16-.8q-64.75-.06-129.5,0H2.15V240H125.06c-1-1.57-1.26-2.52-1.9-3-7.8-6-15.54-12-23.54-17.69-1.7-1.21-4.36-1.48-6.58-1.49-28.17-.1-56.33-.06-84.5-.06H2.21V199.87H53.46c-12.66-5.49-25.92-7.49-39.85-8.45C23,189.87,32.09,188.76,41,186.8c9-2,17.88-4.84,26.8-7.32-.07-.5-.14-1-.22-1.52H2.09V159.74H8.44c30.5,0,61,.08,91.49-.12a15.43,15.43,0,0,0,8.59-2.85c7.39-5.54,14.38-11.61,21.53-17.47-.23-.47-.45-.94-.67-1.41H2.1V119.74H7.89c44.17,0,88.33-.08,132.5.12,4.59,0,7.4-1.37,9.61-5.22,3.11-5.42,6.56-10.63,10.43-16.82H2.14V79.73H8.28c51.66,0,103.32-.06,155,.11,4.07,0,6.06-1.17,7.12-5,1.56-5.53,3.4-11,5.32-17.13H2.13v-18H8.31c54.83,0,109.66-.06,164.49.11,5,0,7.46-1,7.19-6.44-.14-2.77.67-5.59,1.17-9.25.55,4.8,1,8.76,1.52,13.3H360.44V44H182.9C186,55,188.76,65,192,74.87c.37,1.15,3.49,2,5.33,2q59.74.17,119.5.09Z"/><path d="M256.06,398.37c11.05,0,21.7-.2,32.33.17,2.07.07,4.13,2.25,6.08,3.62,7.57,5.34,9.89,12.46,9.36,21.8-.84,14.93-.34,30-.13,44.93.05,3.65-1.41,6-3.56,8.74-5.94,7.69-13.19,10.61-22.86,9.49-6.88-.8-13.93-.16-21.22-.16Zm29.45,71.4v-54.3H273.86v54.3Z"/><path d="M310.7,442.28c0-8.67.16-17.34-.07-26-.1-3.59,1.23-6,3.45-8.75,5.91-7.4,13.11-9.16,22.42-9.61,11.05-.53,15.23,7.23,21.39,13,.74.69.6,2.49.6,3.78,0,18.5.11,37-.1,55.49,0,2.18-1.38,4.57-2.69,6.47-5.88,8.55-13.95,10.71-24.33,10.73-10.66,0-14.09-8.09-20.25-13.26-.72-.6-.4-2.54-.41-3.86,0-4.66,0-9.33,0-14Zm29.74,27.48v-54.3H328.91v54.3Z"/><path d="M2.09,17.31V0H180.37V17.31Z"/><path d="M103.05,442.88c0,8.48-.21,17,.09,25.45.15,4.17-1.41,6.92-4.07,10-5.57,6.55-11.9,8.52-20.58,9.06-11.1.7-15.93-6.37-22-12.57-.84-.85-.84-2.76-.84-4.18,0-18.64-.13-37.28.09-55.91,0-2.16,1.38-4.56,2.72-6.42,5.5-7.6,12.61-10.2,22.42-10.49,11-.33,15.4,6.88,21.46,12.8.84.81.7,2.81.71,4.26C103.08,424.24,103.05,433.56,103.05,442.88Zm-29.67-27.4v54.26H85.31V415.48Z"/><path d="M198.55,486.63c1.82-12.86,3.56-25.37,5.38-37.86,2.21-15.13,4.66-30.23,6.6-45.4.53-4.09,1.91-5.31,5.89-5.1,6.15.32,12.32.15,18.48.06,2.37,0,3.5.62,3.88,3.26,3.88,27.15,7.92,54.28,11.88,81.42a27.84,27.84,0,0,1,0,3.68H233.75l-2.24-16.48H218.12c-.75,5.56-1.48,11-2.22,16.42Zm31.09-33c-1.48-12.5-2.89-24.46-4.31-36.42l-1-.06c-1.45,12.05-2.9,24.11-4.38,36.48Z"/><path d="M30.09,469.68V449.1H47.74c0,7.86.21,15.65-.17,23.4-.08,1.77-2.2,3.45-3.41,5.15-5.5,7.71-12.93,9.33-22.27,9.75C10.81,487.89,6.75,480,.65,474.2c-.82-.78-.6-2.83-.6-4.3,0-18.33-.12-36.66.09-55,0-2.17,1.4-4.55,2.71-6.44,5.66-8.2,13.37-10.37,23.43-10.58,10.81-.22,14.74,7.48,20.94,12.92a2.71,2.71,0,0,1,.49,1.84c0,6.3,0,12.59,0,19.21H30.1V415.48H18v54.2Z"/><path d="M156.13,398.66h17.49v71.27h20.7v16.78H156.13Z"/><path d="M110.57,398.66h17.11v71.25h20.9v16.72h-38Z"/></svg>