<svg id="Layer_1" data-name="Layer 1" xmlns="http://www.w3.org/2000/svg" viewBox="0 0 753.92 119.27"><defs><style>.cls-1{fill:none;}</style></defs><path class="cls-1" d="M499.65,39.7q-13.87,0-27.76,0t-27.76,0c-3.41,0-4.54,1.17-4.54,4.62q0,14.54,0,29.05c0,3.33,1.42,4.74,4.8,4.74h55.3c3.3,0,4.64-1.34,4.65-4.61q0-14.54,0-29.05C504.33,40.94,503.13,39.71,499.65,39.7Z"/><path class="cls-1" d="M403.73,36.86c0-6.6-3.8-10.39-10.43-10.39H357.89q-18,0-36.07,0c-5.62,0-9.86,3.93-9.89,9.44q-.14,23.06,0,46.09a9.7,9.7,0,0,0,9.83,9.65q36.06.06,72.13,0a10,10,0,0,0,9.64-7.73,20.2,20.2,0,0,0,.17-4.79c0-2,.68-4.71-.35-5.9-1.18-1.37-4-.24-6-.47-1.53-.17-1.93.39-1.94,1.92a8.43,8.43,0,0,1-8.51,8.67q-28.74.14-57.48,0c-5.69,0-9.17-3.82-9.17-9.46q0-15,0-29.92c0-6.16,3.29-9.46,9.4-9.46h55.74c6.44,0,9.52,2.75,10.06,9.1.09,1.12.45,1.51,1.57,1.46a44.25,44.25,0,0,1,5,0c1.3.08,1.82-.26,1.74-1.67C403.64,41.23,403.73,39.05,403.73,36.86Z"/><path class="cls-1" d="M507.58,26.48q-17.81,0-35.61,0t-35.61,0c-6.31,0-10.05,3.68-10.06,10q0,22.38,0,44.76c0,6.58,3.91,10.42,10.48,10.42h70.34c6.6,0,10.45-3.84,10.45-10.42q0-22.38,0-44.76C517.57,30.08,514,26.48,507.58,26.48Zm1.95,47.81c0,5.21-3.64,9.06-8.83,9.08q-28.51.07-57,0c-5.64,0-9.33-3.91-9.33-9.57q0-14.73,0-29.47c0-6.47,3.33-9.81,9.76-9.81h56.37c5.41,0,9.06,3.64,9.06,9Q509.55,58.89,509.53,74.29Z"/><path class="cls-1" d="M390.17,72.75v1.13c0-.07,0-.14,0-.22A7,7,0,0,0,390.17,72.75Z"/><path class="cls-1" d="M286.56,26.46a36.56,36.56,0,0,1-5,0c-1.74-.16-2.19.47-2.18,2.18.08,10.11,0,20.21,0,30.32s0,20.5,0,30.75c0,1.48.35,2.11,1.93,2a38.18,38.18,0,0,1,5.24,0c1.35.08,1.72-.41,1.72-1.74q-.06-30.86,0-61.73C288.26,26.93,287.94,26.37,286.56,26.46Z"/><path class="cls-1" d="M618.07,54.45c-19.31.3-38.62.11-57.92.1-4.92,0-8.49-2.48-9.25-6.62a14.67,14.67,0,0,1,.52-8c1.38-3.66,3.88-5.47,7.77-5.47q26.44,0,52.89,0a8.39,8.39,0,0,1,7.64,4.18c.39.63.67,1.19,1.61,1.16,2.26-.08,4.52,0,6.78,0,.57,0,1,0,1.23-.81a10.47,10.47,0,0,0-10.41-12.83q-33.1,0-66.22,0c-6.37,0-10.3,3.93-10.37,10.35-.06,5.32-.05,10.63,0,15.95.06,7,4,10.87,11,10.87h58.14a12.64,12.64,0,0,1,2.82.22c5.2,1.25,7.58,5.46,6.9,12.14-.44,4.39-4.3,7.64-9.4,7.66q-25.91.07-51.8,0c-3.27,0-6.17-1.06-8.09-3.93a1.68,1.68,0,0,0-1.62-.81c-2.26,0-4.52,0-6.78,0-.74,0-1.13.08-1.25,1-.79,6.72,3.54,11.7,10.32,11.71q16.5,0,33,0c11.22,0,22.44,0,33.66,0a9.63,9.63,0,0,0,10-10c0-5.17-.29-10.36.08-15.51C629.84,59.67,625.1,54.34,618.07,54.45Z"/><path class="cls-1" d="M192.05,34.51q29.5,0,59,0c1.87,0,4.42.84,5.42-.38s.17-3.61.39-5.47-.61-2.22-2.33-2.2c-11.58.07-23.17,0-34.75,0s-22.88,0-34.32,0c-7.29,0-10.74,3.46-10.74,10.68V85.43c0,6.53,0,6.5,6.58,6.27,1.26,0,1.6-.46,1.59-1.66-.05-5,0-10.05,0-15.07a19.56,19.56,0,0,1,.24-4.13c1-4.64,4.28-6.87,10-6.87q28.86,0,57.71,0c1.86,0,4.29.84,5.44-.42s.16-3.63.37-5.49-.49-2.15-2.17-2.14c-17.41.06-34.82,0-52.24,0-3.28,0-6.56.12-9.83,0-4.89-.23-10-2.56-9.49-9.71.06-.87,0-1.75,0-2.62C183,37.85,186.36,34.51,192.05,34.51Z"/><path class="cls-1" d="M685.62,57.3h17.25c-2.92-4.36-5.68-8.5-8.54-12.79Z"/><path class="cls-1" d="M700,26c-2.84-4.21-7.64-4.06-10.5.21Q674.84,48.17,660.1,70q-6.75,10-13.52,20.06c-.27.4-.83.79-.51,1.33s.93.22,1.4.23c2.63,0,5.25-.08,7.87,0a2.76,2.76,0,0,0,2.78-1.54c4.25-6.76,8.58-13.48,12.83-20.24a2.69,2.69,0,0,1,2.61-1.44q20.76.06,41.5,0a2.79,2.79,0,0,1,2.65,1.43c3.64,5.44,7.65,10.65,10.92,16.29,2.47,4.27,5.4,6.42,10.39,5.5a30,30,0,0,1,5,0c-.47-.8-.72-1.3-1-1.77Q721.49,58,700,26Zm12.24,36.39h-36.1c-.3-.8.36-1.22.7-1.71q6.93-10.19,13.91-20.32c2.55-3.7,4.64-3.72,7.14,0Q704.86,50.65,711.73,61C712,61.39,712.47,61.72,712.26,62.43Z"/><path d="M96,2.22a1.84,1.84,0,0,0-1.92,1.34c-1.24,2.7-2.59,5.36-3.84,8.06Q70.6,53.88,51,96.12c-3.15,6.78-3.17,6.78.35,13.29,2.74,5,6.5,8.73,12.53,9.39.31,0,.56.13.64.47h3.06c.35-.73,1-.35,1.54-.44,4.57-.76,8.55-2.45,10.67-6.93Q104,60.51,128.19,9.09a38.07,38.07,0,0,0,3-6.85C119.34,2.24,107.69,2.26,96,2.22Z"/><path d="M81.5,13.47a41.7,41.7,0,0,1-2.18-5A13.32,13.32,0,0,0,74.7,2.83C72.54,1.23,70,.86,67.54,0h-7c-.39.78-1.21.67-1.86.92a13.53,13.53,0,0,0-7.9,7Q25.78,61,.63,114c-.29.61-.86,1.19-.53,2.06,11.29,0,22.58,0,33.86,0a2.93,2.93,0,0,0,3.13-1.93Q59.67,67.51,81.5,20.55C82.68,18,82.91,15.89,81.5,13.47Z"/><path d="M753.59,96.28Q729,59.72,704.46,23.15c-4.82-7.2-14.31-7.37-19.12-.22q-24.17,35.91-48.28,71.86c-.42.62-1.18,1.13-.95,2.14,7.59,0,15.16,0,22.73,0,1.19,0,1.61-.7,2.13-1.51,4.29-6.75,8.62-13.47,12.88-20.23a2.68,2.68,0,0,1,2.6-1.47q17.92.07,35.84,0a2.75,2.75,0,0,1,2.62,1.44c4.53,6.76,9.17,13.46,13.69,20.23a3.18,3.18,0,0,0,3,1.55c7.43-.06,14.86,0,22.29,0v-.44A1.76,1.76,0,0,1,753.59,96.28ZM739,91.71c-5,.92-7.92-1.23-10.39-5.5-3.27-5.64-7.28-10.85-10.92-16.29a2.79,2.79,0,0,0-2.65-1.43q-20.74.08-41.5,0A2.69,2.69,0,0,0,671,69.93c-4.25,6.76-8.58,13.48-12.83,20.24a2.76,2.76,0,0,1-2.78,1.54c-2.62-.13-5.24,0-7.87,0-.47,0-1.09.28-1.4-.23s.24-.93.51-1.33q6.75-10,13.52-20.06,14.71-21.89,29.42-43.79c2.86-4.27,7.66-4.42,10.5-.21Q721.52,58,743,89.9c.31.47.56,1,1,1.77A30,30,0,0,0,739,91.71Z"/><path d="M618.39,49.19c-19.31.34-38.62.1-57.93.11-1.94,0-3.82-.26-4.36-2.41a8.82,8.82,0,0,1,.11-4.75,3.18,3.18,0,0,1,3.41-2.45c17.34,0,34.68,0,52,0,2.88,0,3.79.89,3.84,3.76,0,1.21.35,1.63,1.61,1.62,5.32-.06,10.64-.07,16,0,1.3,0,1.58-.45,1.54-1.63-.07-2.55,0-5.1,0-7.65A14.93,14.93,0,0,0,619.7,21H551.94a14.62,14.62,0,0,0-14.8,14.57q-.09,9.06,0,18.13a14.77,14.77,0,0,0,15,14.86h57.92a20.74,20.74,0,0,1,2.62.07,3.2,3.2,0,0,1,3.08,2.66c.52,4.06.69,6.89-5.21,6.87-14.79,0-29.58,0-44.37,0-2.11,0-4.23.05-6.34,0-2.59-.1-3.7-1.1-3.88-3.62-.07-1.09-.58-1.11-1.38-1.11-5.32,0-10.64.05-16,0-1.32,0-1.58.48-1.54,1.66.07,2.32,0,4.66,0,7,.09,8.11,6.19,14.53,14.31,14.57q34.32.17,68.64,0a14.64,14.64,0,0,0,14.49-14.94c0-5.39-.27-10.79.06-16.16C635.17,56.77,627.93,49,618.39,49.19Zm11,16.63c-.37,5.15-.06,10.34-.08,15.51a9.63,9.63,0,0,1-10,10c-11.22,0-22.44,0-33.66,0q-16.5,0-33,0c-6.78,0-11.11-5-10.32-11.71.12-.94.51-1,1.25-1,2.26,0,4.52,0,6.78,0a1.68,1.68,0,0,1,1.62.81c1.92,2.87,4.82,3.92,8.09,3.93q25.9.06,51.8,0c5.1,0,9-3.27,9.4-7.66.68-6.68-1.7-10.89-6.9-12.14a12.64,12.64,0,0,0-2.82-.22H553.37c-7,0-11-3.85-11-10.87,0-5.32-.05-10.63,0-15.95.07-6.42,4-10.35,10.37-10.35q33.1,0,66.22,0A10.47,10.47,0,0,1,629.34,39c-.18.86-.66.81-1.23.81-2.26,0-4.52-.05-6.78,0-.94,0-1.22-.53-1.61-1.16a8.39,8.39,0,0,0-7.64-4.18q-26.45,0-52.89,0c-3.89,0-6.39,1.81-7.77,5.47a14.67,14.67,0,0,0-.52,8c.76,4.14,4.33,6.62,9.25,6.62,19.3,0,38.61.2,57.92-.1C625.1,54.34,629.84,59.67,629.39,65.82Z"/><path d="M192.78,39.71h33.44c11.29,0,22.58,0,33.87,0,1.64,0,2.08-.41,2.05-2-.12-4.88-.1-9.76,0-14.63,0-1.51-.37-2-1.92-2-7.29.08-14.57,0-21.86,0q-26.43,0-52.88,0c-9.27,0-15.81,5.46-15.85,13.56-.11,20.17,0,40.33-.07,60.49,0,1.53.58,1.78,1.92,1.76,4.88-.06,9.76-.09,14.64,0,1.62,0,2.11-.39,2.08-2.06-.09-6.77,0-13.54,0-20.31,0-4.51.82-5.32,5.33-5.32,21.93,0,43.86,0,65.78,0,2,0,2.8-.38,2.71-2.59-.19-4.5-.16-9,0-13.53.06-2-.43-2.56-2.49-2.55-21.64.08-43.27.06-64.91,0-5.74,0-6.42-.69-6.4-6.31C188.17,40.74,189.16,39.72,192.78,39.71Zm-9.91,6.48c-.48,7.15,4.6,9.48,9.49,9.71,3.27.15,6.55,0,9.83,0,17.42,0,34.83,0,52.24,0,1.68,0,2.37.37,2.17,2.14s.75,4.26-.37,5.49-3.58.42-5.44.42q-28.86,0-57.71,0c-5.67,0-9,2.23-10,6.87a19.56,19.56,0,0,0-.24,4.13c0,5,0,10,0,15.07,0,1.2-.33,1.61-1.59,1.66-6.58.23-6.58.26-6.58-6.27V37.16c0-7.22,3.45-10.67,10.74-10.68q17.16,0,34.32,0c11.58,0,23.17,0,34.75,0,1.72,0,2.55.26,2.33,2.2s.55,4.33-.39,5.47-3.55.38-5.42.38q-29.51,0-59,0c-5.69,0-9.07,3.34-9.17,9.06C182.86,44.44,182.93,45.32,182.87,46.19Z"/><path d="M507.55,21.14H436.33c-9,0-15.25,5.89-15.34,14.88q-.21,22.81,0,45.63c.1,9.34,6.42,15.29,15.71,15.29q35.28,0,70.57,0c9.34,0,15.64-6.27,15.64-15.57q0-22.49,0-45C522.91,27.15,516.87,21.15,507.55,21.14Zm10,60.1c0,6.58-3.85,10.42-10.45,10.42H436.78c-6.57,0-10.46-3.84-10.48-10.42q0-22.38,0-44.76c0-6.32,3.75-10,10.06-10q17.81,0,35.61,0t35.61,0c6.4,0,10,3.6,10,10Q517.59,58.86,517.57,81.24Z"/><path d="M38.63,23.57c1.4-2.95,3.71-5.87,3.86-8.89s-2.44-6.06-3.82-9.09a11.38,11.38,0,0,1-.53-1.19C37.68,3,36.83,2.47,35.25,2.5c-4.21.1-8.43,0-12.65-.07-7,0-13.92,0-21.11,0C9.78,18.53,16.81,35.16,25.3,51.52,29.9,41.88,34.27,32.73,38.63,23.57Z"/><path d="M90.69,99.06c-1.21,2.56-3.2,5.08-3.36,7.71s2.32,5.19,3.46,7.84a2.42,2.42,0,0,0,2.65,1.63c10.71-.06,21.42,0,32.13,0,.53,0,1.07,0,1.82-.08-7.44-15.8-14.77-31.34-22.31-47.34Z"/><path d="M293.42,23c0-1.41-.36-1.89-1.83-1.86-5.17.08-10.34.1-15.51,0-1.65,0-2.07.46-2.06,2.08.07,11.94,0,23.87,0,35.81s0,23.87,0,35.8c0,1.69.4,2.24,2.17,2.2,5.09-.13,10.19-.1,15.29,0,1.54,0,1.95-.44,1.95-2Q293.36,59,293.42,23Zm-6.88,68.72a38.18,38.18,0,0,0-5.24,0c-1.58.12-1.94-.51-1.93-2,.06-10.25,0-20.5,0-30.75s0-20.21,0-30.32c0-1.71.44-2.34,2.18-2.18a36.56,36.56,0,0,0,5,0c1.38-.09,1.7.47,1.7,1.76q-.06,30.87,0,61.73C288.26,91.28,287.89,91.77,286.54,91.69Z"/><path d="M697.91,40.36c-2.5-3.68-4.59-3.66-7.14,0q-7,10.14-13.91,20.32c-.34.49-1,.91-.7,1.71h36.1c.21-.71-.27-1-.53-1.44Q704.83,50.67,697.91,40.36ZM685.62,57.3l8.71-12.79c2.86,4.29,5.62,8.43,8.54,12.79Z"/><path d="M500.47,34.51H444.1c-6.43,0-9.76,3.34-9.76,9.81q0,14.73,0,29.47c0,5.66,3.69,9.56,9.33,9.57q28.51.09,57,0c5.19,0,8.83-3.87,8.83-9.08q0-15.39,0-30.79C509.53,38.15,505.88,34.52,500.47,34.51Zm3.87,39c0,3.27-1.35,4.61-4.65,4.61h-55.3c-3.38,0-4.8-1.41-4.8-4.74q0-14.52,0-29c0-3.45,1.13-4.62,4.54-4.62q13.88,0,27.76,0t27.76,0c3.48,0,4.68,1.24,4.69,4.76Q504.36,59,504.34,73.51Z"/><path class="cls-1" d="M386.88,83.35q-28.74.14-57.48,0c-5.69,0-9.17-3.82-9.17-9.46q0-15,0-29.92c0-6.16,3.29-9.46,9.4-9.46h55.74c6.44,0,9.52,2.75,10.06,9.1.09,1.12.45,1.51,1.57,1.46a44.25,44.25,0,0,1,5,0c1.3.08,1.82-.26,1.74-1.67-.12-2.18,0-4.36,0-6.55,0-6.6-3.8-10.39-10.43-10.39H357.89q-18,0-36.07,0c-5.62,0-9.86,3.93-9.89,9.44q-.14,23.06,0,46.09a9.7,9.7,0,0,0,9.83,9.65q36.06.06,72.13,0a10,10,0,0,0,9.64-7.73,20.2,20.2,0,0,0,.17-4.79c0-2,.68-4.71-.35-5.9-1.18-1.37-4-.24-6-.47-1.53-.17-1.93.39-1.94,1.92A8.43,8.43,0,0,1,386.88,83.35Z"/><path d="M390.6,67.81a2.08,2.08,0,0,0-.43.63v4.31a7,7,0,0,1,0,.91c0,.08,0,.15,0,.22,0,3-1.28,4.23-4.28,4.24H330.16c-3.38,0-4.68-1.37-4.68-4.81V44.92c0-4.39.81-5.21,5.22-5.21h39.78c5.17,0,10.34,0,15.51,0,2.82,0,4.07,1.33,4.23,4.14.09,1.6.33,3.2.28,4.79,0,1.42.55,1.65,1.81,1.63,4.95-.06,9.91-.1,14.86,0,1.63,0,1.88-.56,1.85-2-.1-3.86-.23-7.73,0-11.58.53-8.63-6.59-15.73-15.62-15.61-11.8.16-23.6,0-35.4,0-12.1,0-24.19,0-36.28,0a14.74,14.74,0,0,0-15.05,15.05q0,22.83,0,45.65a14.91,14.91,0,0,0,14.7,15q36.39.13,72.78,0c7.85,0,14.63-6.55,14.8-14.07.11-4.59,0-9.18.06-13.76,0-.89-.19-1.31-.64-1.5H391A2.64,2.64,0,0,0,390.6,67.81Zm6.73,5c2.07.23,4.85-.9,6,.47,1,1.19.36,3.88.35,5.9a20.2,20.2,0,0,1-.17,4.79,10,10,0,0,1-9.64,7.73q-36.06.06-72.13,0A9.7,9.7,0,0,1,311.94,82q-.13-23,0-46.09c0-5.51,4.27-9.43,9.89-9.44q18,0,36.07,0H393.3c6.63,0,10.43,3.79,10.43,10.39,0,2.19-.09,4.37,0,6.55.08,1.41-.44,1.75-1.74,1.67a44.25,44.25,0,0,0-5,0c-1.12,0-1.48-.34-1.57-1.46-.54-6.35-3.62-9.1-10.06-9.1H329.63c-6.11,0-9.4,3.3-9.4,9.46q0,15,0,29.92c0,5.64,3.48,9.44,9.17,9.46q28.74.15,57.48,0a8.43,8.43,0,0,0,8.51-8.67C395.4,73.15,395.8,72.59,397.33,72.76Z"/></svg>