<svg id="Layer_1" data-name="Layer 1" xmlns="http://www.w3.org/2000/svg" viewBox="0 0 407.46 219.75"><defs><style>.cls-1{fill:#333;}.cls-2{fill:#b3b3b3;}.cls-3{fill:gray;}.cls-4{fill:#666;}.cls-5{fill:#ccc;}</style></defs><path d="M305.38,61.52C291.14,47.28,265.26,49.75,251,64s-18.57,39.79-4.33,54,41.66,11.77,55.9-2.47S319.62,75.76,305.38,61.52ZM293.75,107c-9.43,9.43-27.59,11.06-37,1.63s-6.55-26.34,2.88-35.77,26.56-11.06,36-1.63S303.18,97.54,293.75,107Z"/><path d="M161.51,126.8H76.57l-3.86,28.93h68.22a62,62,0,0,1-11.6,16.36c-21.85,21.84-63.92,25.62-85.77,3.78s-15.18-61,6.66-82.89,61.55-25.63,83.39-3.79a46.68,46.68,0,0,1,7.84,10.57h33.62a73.07,73.07,0,0,0-18.79-33c-33-33-92.95-27.27-125.94,5.72s-43,92.2-10.06,125.19S116.82,225,149.82,192c17.11-17.11,27.06-41.27,28.1-65.17Z"/><polygon points="407.46 23.78 387.93 23.78 341.83 77.65 330.09 52.65 313.82 52.65 331.32 89.92 299.74 126.83 319.26 126.83 338.24 104.66 348.65 126.83 364.91 126.83 348.74 92.39 407.46 23.78"/><path d="M181.27,126.86l12.64-74.18h20.75q8.31,0,11.84,1.06a14.94,14.94,0,0,1,8.46,6,19,19,0,0,1,3,10.88,19.55,19.55,0,0,1-2.87,10.93,17.66,17.66,0,0,1-8.61,6.68,13.84,13.84,0,0,1,7.18,5.47,16,16,0,0,1,2.69,9.21,26.16,26.16,0,0,1-3.25,13,19.67,19.67,0,0,1-8.46,8.38q-5.22,2.55-14.78,2.55Zm14.45-11.94h12q7.07,0,9.69-1a9.24,9.24,0,0,0,4.39-3.72,10.92,10.92,0,0,0,1.77-6.1,8.4,8.4,0,0,0-2.32-6.27q-2.32-2.28-7.3-2.28H199Zm5.53-32.29h9.53c4.16,0,7.15-.33,9-1A8.39,8.39,0,0,0,224,78.13a10.41,10.41,0,0,0,1.56-5.67,7.89,7.89,0,0,0-1.16-4.37,5.69,5.69,0,0,0-2.92-2.41c-1.18-.4-3.72-.61-7.62-.61h-9.62Z"/><polygon class="cls-1" points="346.53 47.57 332.8 47.57 339.67 35.67 346.53 23.78 353.4 35.67 360.26 47.57 346.53 47.57"/><polygon class="cls-2" points="325.94 11.89 319.07 23.78 332.8 23.78 346.53 23.78 339.67 11.89 332.8 0 325.94 11.89"/><polygon class="cls-3" points="325.94 35.67 332.8 47.57 339.67 35.67 346.53 23.78 332.8 23.78 319.07 23.78 325.94 35.67"/><polygon class="cls-4" points="367.13 35.67 360.26 47.57 353.4 35.67 346.53 23.78 360.26 23.78 373.99 23.78 367.13 35.67"/><polygon class="cls-5" points="346.53 0 332.8 0 339.67 11.89 346.53 23.78 353.4 11.89 360.26 0 346.53 0"/></svg>