<svg id="Layer_1" data-name="Layer 1" xmlns="http://www.w3.org/2000/svg" viewBox="0 0 714.46 353.34"><path d="M38.79,304.8h2.48l3.88,14.68-3.24,1.06c-2-4.63-4.38-7.91-7-9.89a14.75,14.75,0,0,0-9-2.94,15,15,0,0,0-12.12,6,22.19,22.19,0,0,0-4.89,14.41,24.35,24.35,0,0,0,2.51,11,18.63,18.63,0,0,0,6.7,7.65A16.62,16.62,0,0,0,27,349.44a15.26,15.26,0,0,0,5.77-1.1,15.1,15.1,0,0,0,4.45-2.64,6,6,0,0,0,1.71-2.55,12.75,12.75,0,0,0,.4-3.87V337a8.5,8.5,0,0,0-.62-3.81,3.6,3.6,0,0,0-1.82-1.6,17.65,17.65,0,0,0-4.81-.38v-2.89H51.51v2.89H49.92a6.64,6.64,0,0,0-2.78.4,2.3,2.3,0,0,0-1.08,1.21,9.77,9.77,0,0,0-.35,3.22v16.49H42.36l-1.81-4.13a24.31,24.31,0,0,1-6.14,3.2,28.65,28.65,0,0,1-9.62,1.71,22.16,22.16,0,0,1-16.51-7.06,25.79,25.79,0,0,1,.09-35.15A22.47,22.47,0,0,1,25,304a23.84,23.84,0,0,1,4.78.47,20.34,20.34,0,0,1,4.33,1.38A18.38,18.38,0,0,1,37.58,308Z"/><path d="M78.7,304.8h24.6c4.66,0,8.2.49,10.58,1.46a12.17,12.17,0,0,1,5.53,4.21,11,11,0,0,1,1.92,6.41,11.94,11.94,0,0,1-1.86,6.62,12.71,12.71,0,0,1-5.4,4.57,23,23,0,0,1-9.35,1.73l12.52,15.38a26.41,26.41,0,0,0,2,2.34,9,9,0,0,0,2.52,1.59,7.56,7.56,0,0,0,3,.54h.86v2.91H114.72L97.21,329.8H91.09v14.83a15.14,15.14,0,0,0,.17,3,2.71,2.71,0,0,0,1.21,1.59,7.39,7.39,0,0,0,3.2.45H96.9v2.91H78.7v-2.91h1.64a8.3,8.3,0,0,0,2.47-.23,2.61,2.61,0,0,0,1.12-.83,3.58,3.58,0,0,0,.7-1.51c.05-.26.07-1.4.11-3.45V312.39a7.76,7.76,0,0,0-.42-3,2.69,2.69,0,0,0-1.14-1.31,5.83,5.83,0,0,0-2.53-.39h-2Zm12.39,3.68v18.09h9.81a27,27,0,0,0,7-.63,8.24,8.24,0,0,0,4.52-3,9.1,9.1,0,0,0,1.66-5.6,9.3,9.3,0,0,0-1.2-4.89,7.41,7.41,0,0,0-3.25-2.95,15,15,0,0,0-6.17-1Z"/><path d="M149.81,304.8H168v2.91h-1.2a7.77,7.77,0,0,0-3.13.45,2.31,2.31,0,0,0-1.11,1.19,10.28,10.28,0,0,0-.35,3.37v21.46c0,3.82.46,6.66,1.39,8.5a11.12,11.12,0,0,0,4.65,4.65,14,14,0,0,0,7.15,1.89,14.82,14.82,0,0,0,7.46-2,12,12,0,0,0,4.93-4.8c.95-1.84,1.42-4.77,1.42-8.76v-20.7a9.14,9.14,0,0,0-.43-3.27,3,3,0,0,0-1.33-1.49,6,6,0,0,0-2.75-.47H183.4V304.8h15.72v2.91H198c-1.8,0-3,.34-3.71,1s-1,2-1,4v21.94a20.22,20.22,0,0,1-2.25,10,16.22,16.22,0,0,1-6.6,6.34,22.28,22.28,0,0,1-19.94-.05,16.26,16.26,0,0,1-6.59-6,17.26,17.26,0,0,1-2.11-8.95V312.72a8.7,8.7,0,0,0-.42-3.24,2.69,2.69,0,0,0-1.18-1.36,6.32,6.32,0,0,0-2.73-.41h-1.69Z"/><path d="M226.37,304.8h18.85q8.59,0,11.84,1.1a14.27,14.27,0,0,1,6.72,4.47,12.07,12.07,0,0,1,2.65,8,12.59,12.59,0,0,1-2,7.18,13.79,13.79,0,0,1-5.89,5.17c-2.31,1-6,1.53-10.92,1.53h-8.73v12.16a11.45,11.45,0,0,0,.31,3.47,2.78,2.78,0,0,0,1.14,1.39,7.38,7.38,0,0,0,2.92.37h1.67v2.91H226.37v-2.91h1.13a9.17,9.17,0,0,0,3.25-.37,2.5,2.5,0,0,0,1.26-1.22,8.13,8.13,0,0,0,.38-3.08V312.39a8.67,8.67,0,0,0-.36-3.14,2.31,2.31,0,0,0-1.2-1.18,10,10,0,0,0-3.33-.36h-1.13Zm12.5,3.68v20.09h7.34c3.71,0,6.3-.33,7.8-1a8.15,8.15,0,0,0,3.7-3.45,11,11,0,0,0,1.46-5.75,10.18,10.18,0,0,0-1.7-6,8.54,8.54,0,0,0-4.64-3.3,35.72,35.72,0,0,0-8-.58Z"/><path d="M316.84,304a22.49,22.49,0,0,1,11.76,3.13,24,24,0,0,1,8.76,8.79,25,25,0,0,1,3,12.52q0,11-6.81,17.93t-17.4,6.94q-11.81,0-18.69-8.34a24.71,24.71,0,0,1-5.63-16.27A25,25,0,0,1,295,316.11a22.81,22.81,0,0,1,9-8.84A25.74,25.74,0,0,1,316.84,304Zm0,3.68a16.52,16.52,0,0,0-9.09,2.43,17.11,17.11,0,0,0-6.09,7.19,26.85,26.85,0,0,0-2.29,11.72,25.46,25.46,0,0,0,2.26,11.28,17,17,0,0,0,6,7.09,15.43,15.43,0,0,0,8.56,2.46,14.6,14.6,0,0,0,8.33-2.4,17.56,17.56,0,0,0,6-7.58,27,27,0,0,0,2.38-11.49,28.28,28.28,0,0,0-2.38-11.76,13.72,13.72,0,0,0-13.74-8.94Z"/><path d="M428.54,304.8H431l3.88,14.68-3.24,1.06c-2-4.63-4.39-7.91-7-9.89a14.73,14.73,0,0,0-9-2.94,15,15,0,0,0-12.11,6,22.19,22.19,0,0,0-4.89,14.41,24.34,24.34,0,0,0,2.5,11,18.77,18.77,0,0,0,6.7,7.65,16.62,16.62,0,0,0,8.91,2.62A16.05,16.05,0,0,0,427,345.7a5.88,5.88,0,0,0,1.7-2.55,12.4,12.4,0,0,0,.41-3.87V337a8.18,8.18,0,0,0-.64-3.81,3.51,3.51,0,0,0-1.8-1.6,17.85,17.85,0,0,0-4.82-.38v-2.89h19.42v2.89h-1.58a6.64,6.64,0,0,0-2.78.4,2.27,2.27,0,0,0-1.09,1.21,9.42,9.42,0,0,0-.36,3.22v16.49h-3.33l-1.82-4.13a24.14,24.14,0,0,1-6.14,3.2,28.62,28.62,0,0,1-9.63,1.71,22.15,22.15,0,0,1-16.5-7.06,25.78,25.78,0,0,1,.08-35.15,22.51,22.51,0,0,1,16.66-7.1,24.24,24.24,0,0,1,4.82.47,20,20,0,0,1,4.31,1.38,18.07,18.07,0,0,1,3.43,2.13Z"/><path d="M493.65,304a22.49,22.49,0,0,1,11.76,3.13,23.82,23.82,0,0,1,8.76,8.79,24.94,24.94,0,0,1,3.05,12.52q0,11-6.82,17.93T493,353.34q-11.82,0-18.7-8.34a24.76,24.76,0,0,1-5.63-16.27,25,25,0,0,1,3.18-12.62,22.88,22.88,0,0,1,9-8.84A25.67,25.67,0,0,1,493.65,304Zm0,3.68a16.5,16.5,0,0,0-9.09,2.43,17.26,17.26,0,0,0-6.09,7.19,26.71,26.71,0,0,0-2.29,11.72,25.46,25.46,0,0,0,2.26,11.28,17,17,0,0,0,6.05,7.09,15.38,15.38,0,0,0,8.55,2.46,14.7,14.7,0,0,0,8.34-2.4,17.56,17.56,0,0,0,6-7.58,27.12,27.12,0,0,0,2.38-11.49,28.44,28.44,0,0,0-2.38-11.76,13.72,13.72,0,0,0-13.74-8.94Z"/><path d="M545.64,304.8h14.67l21.6,35.82V313.4a9.88,9.88,0,0,0-.47-3.53,3.56,3.56,0,0,0-1.45-1.61,5.91,5.91,0,0,0-2.87-.55h-1.24V304.8h16v2.91H591a7.81,7.81,0,0,0-2.85.34,3.08,3.08,0,0,0-1.58,1.76,9.73,9.73,0,0,0-.52,3.59v39.16h-4.14l-26.12-43v34.1a17,17,0,0,0,.19,3.45,3.59,3.59,0,0,0,2.37,2.32,17.79,17.79,0,0,0,3.48.25v2.91H545.64v-2.91h.86a7.8,7.8,0,0,0,3.33-.47,3.18,3.18,0,0,0,1.37-1.63,11.48,11.48,0,0,0,.48-3.92V313.4a22.24,22.24,0,0,0-.15-3.49,2.6,2.6,0,0,0-1.18-1.69,7.81,7.81,0,0,0-3.47-.51h-1.24Z"/><path d="M619.08,307.71V304.8h17q11.68,0,16.31,1.47a21.26,21.26,0,0,1,11.06,8.05A26.18,26.18,0,0,1,665.87,340a21.92,21.92,0,0,1-6.07,7.95,18.54,18.54,0,0,1-7.51,3.58,37.7,37.7,0,0,1-8.82,1H619.08v-2.91h2l.68,0a3.8,3.8,0,0,0,2.07-.5,2.71,2.71,0,0,0,1.15-1.36,10.3,10.3,0,0,0,.25-3V312.72a10.2,10.2,0,0,0-.34-3.38,2.76,2.76,0,0,0-1.56-1.44A24,24,0,0,0,619.08,307.71Zm12.49,41.17H641.9a41.29,41.29,0,0,0,5.12-.54,18.47,18.47,0,0,0,5.1-1.34,14.63,14.63,0,0,0,4.39-3.76,18.49,18.49,0,0,0,3.26-6.22,27.59,27.59,0,0,0,1.15-8.29,25.31,25.31,0,0,0-1.15-8,18.33,18.33,0,0,0-3.45-6.1,16.4,16.4,0,0,0-5.14-4.15,18.37,18.37,0,0,0-6.3-1.79q-1.89-.18-6.29-.18h-7Z"/><path d="M696.26,304.8h18.2v2.91H713a5.64,5.64,0,0,0-2.88.55,3.13,3.13,0,0,0-1.31,1.55,12,12,0,0,0-.41,3.92v30.9a8.19,8.19,0,0,0,.44,3.22,3,3,0,0,0,1.26,1.38,6.92,6.92,0,0,0,2.9.42h1.43v2.91h-18.2v-2.91h1.47a6.42,6.42,0,0,0,2.79-.43,2.64,2.64,0,0,0,1.17-1.3,9.76,9.76,0,0,0,.37-3.29V313.07a11.5,11.5,0,0,0-.37-3.59,2.46,2.46,0,0,0-1.17-1.34,6.42,6.42,0,0,0-2.79-.43h-1.47Z"/><path d="M430.32,54.18l-2.73,0L423.15,54c-3.63-.08-7.25-.13-10.89-.16h-1.68c-1.5,0-3,0-4.52,0-3.39,0-6.79,0-10.18.08l-4.31,0v0C261,56.3,136.14,90.34,136.14,146.28c0,42.07,68,71.65,156.17,85.2a5.62,5.62,0,0,0,.65.16c12.88,2,22.43,3.21,33.93,4.28a218.19,218.19,0,0,0,24.86,1.73h.77c8.49.26,17.87.33,24.9.26,12.53-.13,32.21-1.84,48.57-3.56,93.37-8.44,170.35-32.83,170.35-69.3,0-34.14-70-57.79-157.43-67.21-5.07-.54-16.08-.67-24.18-.66,0,0,3.57,0,3.55.07-3.78.08-21,.43-26.1.56a2.9,2.9,0,0,0-1.24.64,2.51,2.51,0,0,0-.66,1.34l0,15.79a2.57,2.57,0,0,0,2,2,2.49,2.49,0,0,0,2.38-.9,19.83,19.83,0,0,1,10.48-8.43c7.65-2.78,28-1.83,30.73-1.67,63.45,10,90.51,31.16,90.51,60.42,0,35.65-47.08,62.93-162.12,64.8q-11.5-.75-22-1.9c-1.24-.14-2.4-.26-3.46-.39-2.35-.28-4.67-.57-6.95-.89-1.42-.19-2.83-.37-4.2-.57-6.72-1-13.16-2.09-19.22-3.34-.13,0-.24,0-.38,0-66.22-13.44-94.66-41.86-94.66-75.88,0-49.58,51.68-85.44,178.26-87.94v.09c4.18-.08,8.19,0,12.49,0,156.76,0,220.38,42.28,220.38,100.61,0,54-64.61,93.79-221.38,93.79-10.88,0-20.8.58-30.44.71v-.22c-189.13-.14-265.8-50.28-265.8-115.35C106.87,70,183.76,19.8,373.53,19.8c10.19,0,18.81.17,28.35.45l17.72.87a3.17,3.17,0,0,0,2.3-.65,3,3,0,0,0,.87-2.33l.08-15.83a3,3,0,0,0-1-1.84c-1.61-1.08-1.72,0-1.75.09a3.41,3.41,0,0,0-.39.37c-2.22,3-6.7,6-11.51,7.76a42.06,42.06,0,0,1-9.71,2.3l-11-.34c-.83-.15-1.28-.28-1.28-.28l-.32.24c-4.11-.09-8.22-.17-12.33-.17C185.76,10.44,0,57.64,0,137.05c0,80.79,185.19,128,372.67,128.1v-.35c10.4.19,20.51.05,31.55.05,155.12,0,308.55-39.11,308.55-106.14C712.77,96.62,576.08,58.31,430.32,54.18Z"/><path d="M421.45,58.65a15,15,0,1,1-14.94-14.94A14.95,14.95,0,0,1,421.45,58.65Z"/><path d="M691.37,59.23a20.35,20.35,0,0,1,9.76,2.57,17.92,17.92,0,0,1,7.4,7.34,20.21,20.21,0,0,1,2.66,9.94,20,20,0,0,1-2.62,9.85,18.32,18.32,0,0,1-7.32,7.36,19.95,19.95,0,0,1-19.73,0,18.56,18.56,0,0,1-7.34-7.36,19.86,19.86,0,0,1,0-19.79,18.11,18.11,0,0,1,7.43-7.34A20.23,20.23,0,0,1,691.37,59.23Zm0,3.28a16.8,16.8,0,0,0-8.12,2.14,15.56,15.56,0,0,0-6.2,6.13,16.66,16.66,0,0,0,0,16.53,15.55,15.55,0,0,0,6.14,6.11,16.33,16.33,0,0,0,16.44,0,15.53,15.53,0,0,0,6.13-6.11,16.53,16.53,0,0,0-.05-16.53,15.24,15.24,0,0,0-6.17-6.13A17,17,0,0,0,691.37,62.51ZM682.7,90V68.67H690a17.61,17.61,0,0,1,5.44.6,5.3,5.3,0,0,1,2.7,2,5.63,5.63,0,0,1-.69,7.2,6.72,6.72,0,0,1-4.45,2,5.73,5.73,0,0,1,1.81,1.13A23.15,23.15,0,0,1,698,85.85l2.6,4.19h-4.2l-1.89-3.37c-1.5-2.65-2.69-4.32-3.57-5a4.45,4.45,0,0,0-2.76-.74h-2V90Zm3.44-12h4.18c2,0,3.37-.3,4.11-.89a2.94,2.94,0,0,0,1.08-2.38,2.91,2.91,0,0,0-.52-1.68,3.22,3.22,0,0,0-1.46-1.12,10.81,10.81,0,0,0-3.47-.37h-3.92Z"/></svg>