<svg id="Layer_1" data-name="Layer 1" xmlns="http://www.w3.org/2000/svg" viewBox="0 0 430.65 320.75"><path d="M159,179.34H39.77A95.69,95.69,0,0,0,99.4,200.23s24.69.41,34.1-3.55a70.94,70.94,0,0,0,7.16-5.84,30.24,30.24,0,0,0,5.4-6.38h1.81v11.89H202.7v-17Z"/><rect x="145.39" y="208.24" width="57.3" height="17.34"/><path d="M183.23,151.6H15.58a101.76,101.76,0,0,0,12.94,17.34H202.7V151.6Z"/><path d="M194.84,122.93H140.43a47.69,47.69,0,0,1-74.27,0H5.41v5.43A103.86,103.86,0,0,0,12,145.05H202.7V122.93Z"/><path d="M197.54,91.65H150.17c.07,1,.12,2.11.12,3.18a44.68,44.68,0,0,1-4.19,18.94h56.6V91.65Z"/><path d="M56.3,94.83c0-1.07.05-2.13.12-3.18H1.26c-.13,2.18-.21,4.38-.21,6.59a105.92,105.92,0,0,0,1.14,15.53h58.3A44.83,44.83,0,0,1,56.3,94.83Z"/><path d="M71.11,61.43H7.66A104.7,104.7,0,0,0,2.07,83.55H57.73A45.6,45.6,0,0,1,71.11,61.43Z"/><path d="M125.88,0H72.93C45.74,7.86,23.31,27.52,11.09,53.33H202.7V0Z"/><path d="M271.62,179.34H390.88a95.69,95.69,0,0,1-59.63,20.89s-24.69.41-34.11-3.55a71.49,71.49,0,0,1-7.15-5.84,30.24,30.24,0,0,1-5.4-6.38h-1.81v11.89H228v-17Z"/><rect x="227.95" y="208.24" width="57.3" height="17.34"/><path d="M247.42,151.6H415.07a102.29,102.29,0,0,1-12.94,17.34H228V151.6Z"/><path d="M235.81,122.93h54.41a47.68,47.68,0,0,0,74.26,0h60.76v5.43a103.86,103.86,0,0,1-6.6,16.69H228V122.93Z"/><path d="M233.11,91.65h47.37c-.07,1-.12,2.11-.12,3.18a44.68,44.68,0,0,0,4.19,18.94H228V91.65Z"/><path d="M374.35,94.83c0-1.07-.05-2.13-.12-3.18h55.16c.13,2.18.21,4.38.21,6.59a105.92,105.92,0,0,1-1.14,15.53h-58.3A44.83,44.83,0,0,0,374.35,94.83Z"/><path d="M359.54,61.43H423a104.7,104.7,0,0,1,5.59,22.12H372.92A45.6,45.6,0,0,0,359.54,61.43Z"/><path d="M304.77,0h53c27.18,7.86,49.62,27.52,61.84,53.33H228V0Z"/><path d="M0,317.79c3.13-.34,5.18-.88,6.1-1.68s1.42-2.83,1.42-6.05V272c0-3.05-.46-5-1.38-5.93s-3-1.54-6.14-1.75v-1.59H24.18v1.59c-3.13.17-5.26.67-6.35,1.54s-1.58,2.72-1.58,5.56v41.09c0,1.88.41,3,2.58,3.26.63.08,1.3.13,2,.17s2.05,0,4,0q11.4,0,15.41-1.88c2.67-1.25,5.26-4.47,7.77-9.61H50.2L46,319.33H0Z"/><path d="M81.86,261.53a27,27,0,0,1,19.46,7.6q8.58,8.21,8.56,21.93,0,13.9-8.85,22.13a27.3,27.3,0,0,1-19.17,7.35,26.71,26.71,0,0,1-20-8.14c-5.39-5.56-8.06-12.66-8.06-21.34q0-13.72,8.6-22A27,27,0,0,1,81.86,261.53Zm12.9,49.66c3.6-4.22,5.39-10.9,5.39-20.13S98.36,275,94.72,270.84s-7.89-6.22-12.86-6.22c-5.14,0-9.48,2.17-13,6.47s-5.3,11-5.3,20,1.75,15.66,5.3,20,7.89,6.43,13,6.43A16.37,16.37,0,0,0,94.76,311.19Z"/><path d="M163.93,261.74h1.88l.67,18h-2a32.52,32.52,0,0,0-5.43-9.27,17.35,17.35,0,0,0-13.15-5.35,19.9,19.9,0,0,0-14.49,6.27q-6.21,6.19-6.23,20.54,0,11.85,6.23,18.46A20.18,20.18,0,0,0,146.81,317a26.18,26.18,0,0,0,7.6-1.21,12.29,12.29,0,0,0,3.8-1.71,2.92,2.92,0,0,0,.75-2.17V298.28c0-3.3-.46-5.34-1.42-6.14s-3-1.29-6.1-1.5v-1.59h21.8v1.59a8.17,8.17,0,0,0-4.22,1c-1.16.88-1.75,2.72-1.75,5.52V314q0,1.5-7.39,4a43.72,43.72,0,0,1-14.16,2.5c-8.35,0-15.41-2.42-21.13-7.31-6.31-5.38-9.48-12.57-9.48-21.63a29.64,29.64,0,0,1,7.56-20.46q8.33-9.4,22-9.4a35.31,35.31,0,0,1,9.77,1.38A41.41,41.41,0,0,0,160,264.5C162.47,264.5,163.22,263.53,163.93,261.74Z"/><path d="M176.21,317.79c3.47-.26,5.72-.76,6.77-1.55s1.54-2.88,1.54-6.18V272c0-3.13-.5-5.18-1.54-6.05s-3.3-1.46-6.77-1.63v-1.59h25.31v1.59c-3.47.17-5.72.71-6.77,1.63s-1.54,2.92-1.54,6.05v38.05c0,3.3.5,5.39,1.54,6.18s3.3,1.29,6.77,1.55v1.54H176.21Z"/><path d="M208.83,302.12a30.64,30.64,0,0,0,5.1,9.19,16,16,0,0,0,12.65,6,10.41,10.41,0,0,0,7.06-2.59,9,9,0,0,0,3-7.22,10.07,10.07,0,0,0-3-7.27,54.79,54.79,0,0,0-8.27-5.89l-7.31-4.55a24.94,24.94,0,0,1-5.26-4.22,13.11,13.11,0,0,1-3.63-8.93,14.58,14.58,0,0,1,4.3-10.78c2.88-2.88,6.68-4.3,11.4-4.3a21.66,21.66,0,0,1,7,1.46,29.81,29.81,0,0,0,4.72,1.42c2.13,0,2.68-1,3.14-2.88h1.75l1.88,18.21h-2.05q-2.07-8.21-6.72-11.49a15.68,15.68,0,0,0-9.1-3.25,9.7,9.7,0,0,0-6.14,2.08,6.91,6.91,0,0,0-2.59,5.73,8.28,8.28,0,0,0,2,5.63,25.86,25.86,0,0,0,6.22,5l7.52,4.64c4.72,2.88,8,5.55,9.94,8a13.87,13.87,0,0,1,2.84,8.68A14.48,14.48,0,0,1,240.2,316c-3.39,3-7.69,4.51-12.95,4.51a25.2,25.2,0,0,1-8.31-1.51,31.4,31.4,0,0,0-4.93-1.5c-2,0-2.51,1.5-2.72,2.88h-1.87l-2.55-18.21Z"/><path d="M252.56,262.74h48.32l.46,14.54h-2c-1-4.56-2.29-7.52-3.84-8.9s-4.76-2.09-9.73-2.09H281v43.77c0,3.3.5,5.39,1.55,6.18s3.29,1.29,6.76,1.55v1.54H264.34v-1.54c3.63-.3,5.89-.88,6.76-1.8s1.34-3.22,1.34-6.93V266.29h-4.76c-4.72,0-8,.67-9.69,2s-3,4.34-3.84,8.94h-2.09Z"/><path d="M304.52,317.79c3.47-.26,5.72-.76,6.76-1.55s1.55-2.88,1.55-6.18V272c0-3.13-.5-5.18-1.55-6.05s-3.29-1.46-6.76-1.63v-1.59h25.31v1.59c-3.47.17-5.72.71-6.77,1.63s-1.54,2.92-1.54,6.05v38.05c0,3.3.5,5.39,1.54,6.18s3.3,1.29,6.77,1.55v1.54H304.52Z"/><path d="M382.08,261.74h1.79l.79,19.21h-2a27.58,27.58,0,0,0-4.47-9.23,17.21,17.21,0,0,0-14.15-6.6,18.08,18.08,0,0,0-14.71,7.1q-5.7,7.08-5.68,19.55c0,7.64,2,13.74,6,18.29a19.35,19.35,0,0,0,15.2,6.81,24.22,24.22,0,0,0,12.24-3.18,36.68,36.68,0,0,0,7.05-5.43l1.59,1.59a29.32,29.32,0,0,1-22.64,10.9q-13.77,0-21.88-8.81c-5-5.43-7.48-12.2-7.48-20.34,0-8.31,2.64-15.33,7.9-21,5.55-5.93,12.74-8.89,21.63-8.89a34.9,34.9,0,0,1,9.52,1.38,48.08,48.08,0,0,0,5.47,1.38A3.82,3.82,0,0,0,382.08,261.74Z"/><path d="M394.19,302.12a30.64,30.64,0,0,0,5.1,9.19,16,16,0,0,0,12.65,6,10.41,10.41,0,0,0,7.06-2.59,9,9,0,0,0,3-7.22,10.06,10.06,0,0,0-3-7.27,54.79,54.79,0,0,0-8.27-5.89l-7.31-4.55a24.94,24.94,0,0,1-5.26-4.22,13.13,13.13,0,0,1-3.64-8.93,14.59,14.59,0,0,1,4.31-10.78c2.88-2.88,6.68-4.3,11.4-4.3a21.66,21.66,0,0,1,7,1.46,29.81,29.81,0,0,0,4.72,1.42c2.13,0,2.68-1,3.14-2.88h1.75l1.88,18.21h-2.05q-2.07-8.21-6.72-11.49a15.69,15.69,0,0,0-9.11-3.25,9.74,9.74,0,0,0-6.14,2.08,6.93,6.93,0,0,0-2.58,5.73,8.28,8.28,0,0,0,2,5.63,25.66,25.66,0,0,0,6.22,5l7.52,4.64c4.72,2.88,8,5.55,9.94,8a13.87,13.87,0,0,1,2.84,8.68,14.45,14.45,0,0,1-5.1,11.24c-3.38,3-7.68,4.51-12.94,4.51A25.2,25.2,0,0,1,404.3,319a31.4,31.4,0,0,0-4.93-1.5c-2,0-2.51,1.5-2.72,2.88h-1.87l-2.55-18.21Z"/></svg>