<svg id="Layer_1" data-name="Layer 1" xmlns="http://www.w3.org/2000/svg" viewBox="0 0 730.91 248.93"><path d="M0,240.63V66c0-3.78-.06-5.5,3.48-5.5s21.81,0,23.53.63c3.1,1.09,100.53,138.61,100.53,138.61v-49.6s7.83-23.37,30.11-36.75V239.18a7.83,7.83,0,0,1-5.31,4.88c-4,.88-17.27.88-20.81,0a7.64,7.64,0,0,1-4.87-4.43L29.23,103.23V241c0,1.43-1.77,3.32-15.5,3.32S0,242.52,0,240.63Z"/><path d="M177,113.93v86s-2.25,49,59,49c33.75,0,61.5-10.25,61.5-15.25V113.26s-2.25-3.33-13-3.33-12.75,3.33-12.75,3.33V219.18s-7.25,8.25-31,8.25-37.75-13-37.75-29V113.68s-3.75-3.25-13.75-3.25S177,113.93,177,113.93Z"/><path d="M313.24,79.18V209.43c0,14.67,11.65,38.66,46,38.66,2.21,0,3.25-1.18,3.25-2.66v-14.5c0-2.44-1.92-2.79-3.5-3.25-3.77-.12-20-2.5-20-22.25v-71a2.45,2.45,0,0,1,2.5-2.5H360s3-1.25,3-4V116.18s.5-3.25-3.75-3.25h-16.5s-4.25-.5-4.25-4V79.43s-.75-2.5-12.75-2.5S313.24,79.18,313.24,79.18Z"/><path d="M377,126.43V243.18s-.75,3.25,12.25,3.25,13.5-1.5,13.5-3.5V136.68s14.5-12.25,51.25-4.5c1.25.5,4.25-1.5,5.25-5.25s3.5-12.25,2.25-13.5-7-5-29.5-5S384,118.43,377,126.43Z"/><path d="M660.58,61l-.75,181.17s0,3.58,13.25,3.58,13.5-3.08,13.5-3.08V61.26s-3.09-2.33-14.09-2.33S660.58,61,660.58,61Z"/><path d="M474.24,111.93l-.75,130.25s0,3.58,13.25,3.58,13.5-3.08,13.5-3.08V112.18s-3-2-14-2S474.24,111.93,474.24,111.93Z"/><circle cx="486.87" cy="82.8" r="16.38"/><path d="M701.91,111.93l-.75,130.25s0,3.58,13.25,3.58,13.5-3.08,13.5-3.08V112.18s-3-2-14-2S701.91,111.93,701.91,111.93Z"/><circle cx="714.54" cy="82.8" r="16.38"/><path d="M580.38,107.68c-38.18,0-69.14,31.6-69.14,70.59s31,70.59,69.14,70.59,69.14-31.6,69.14-70.59S618.56,107.68,580.38,107.68Zm0,119.7c-22.87,0-41.4-22-41.4-49.11s18.53-49.1,41.4-49.1,41.41,22,41.41,49.1S603.25,227.38,580.38,227.38Z"/><path d="M126.43,61.25V84.56s7.32-23.31,25.48-32.25c-12.2,8.94-25.48,32.25-25.48,56.37,0,2.71-.06,9.37-.12,15.59,6-19,28.78-37.26,38.61-49.2C176.3,61.25,178.2,42.28,178.2,36.86V12C157.73,16.93,126.43,29.7,126.43,61.25Z"/><path d="M126.43,54.75,127,54C131.4,27.71,159.37,16.53,178.2,12V0C141.61,0,126.43,32,126.43,54.75Z"/><path d="M178.2,12V36.9c0,5.42-1.9,24.39-13.28,38.22-9.83,11.93-32.63,30.34-38.61,49.2-.4,2.36-.15,13.13-.15,13.13C130,122.82,143,108.72,160.85,96s34.69-22.49,34.69-59.62V9A121.72,121.72,0,0,0,178.2,12Z"/></svg>