<svg id="Layer_1" data-name="Layer 1" xmlns="http://www.w3.org/2000/svg" viewBox="0 0 485.84 486.75"><defs><style>.cls-1{fill:#f4c245;}</style></defs><rect class="cls-1" y="398.9" width="485.84" height="87.85"/><path d="M139,269.59l-3.36,0c-3.45,0-6.89.09-10.34,0-3,0-3.44-.46-3.44-3.53,0-8.66,0-17.32,0-26q0-44.65,0-89.31c0-4.11-.07-8.21-.07-12.32v-3.72s1.82,3.44,2.47,4.57c3.88,7.37,7.46,14.91,11.67,22.07a171.48,171.48,0,0,0,26.36,34.24c5,5,10.31,9.78,15.54,14.58a5.49,5.49,0,0,1,2,4.38c-.05,3.11,0,6.22,0,9.33q0,19.83,0,39.65c0,2.09,0,4.45,0,6.89l3.06,0c3,.05,6,0,9,0,3.29,0,3.6.29,3.67,3.61.21,9.66.29,19.33.6,29a48.19,48.19,0,0,0,1.2,10.88c2.76,10.3,9.58,16.89,19.88,19.54,9.58,2.47,19,2,27.66-3.34a23.12,23.12,0,0,0,10.95-15.63,92.79,92.79,0,0,0,1.33-24.22c-1-17.28-8.64-31.65-19.61-44.62-9.51-11.24-20.28-21.16-31.21-30.94-12.26-11-24.24-22.25-34.62-35.06a150.55,150.55,0,0,1-27.83-52.69,115.43,115.43,0,0,1-4.23-39.88,137.08,137.08,0,0,1,7.57-37.77c3.9-11,9.34-21.1,17.35-29.71a57.89,57.89,0,0,1,35-18.33,122.54,122.54,0,0,1,15-1.13,348.29,348.29,0,0,1,40,.91C271,2.73,284.82,9.82,296.1,22a79.58,79.58,0,0,1,18.62,34.19,80.89,80.89,0,0,1,2.41,16.11c.55,9.64.57,19.31.8,29,0,.77,0,1.55,0,2.33a2.05,2.05,0,0,1-2.11,2.12c-.77.07-1.55.09-2.33.09q-22.67,0-45.33,0c-.89,0-1.77,0-2.66,0-4.4-.1-4.41-.1-4.53-4.41-.19-7.33-.37-14.66-.58-22-.37-13.2-8.71-23.94-21.48-27.16C228,49.46,213.08,52.92,206,63.83a35,35,0,0,0-5.12,15.68c-1.78,16.94,2.17,32.59,10.37,47.38,6.83,12.31,16,22.63,26.3,32.06,15.75,14.38,31.42,28.85,45.81,44.63,11.55,12.65,21,26.68,27.14,42.8,7.84,20.45,10,41.52,7.76,63.21-1.26,12.13-3.53,24-8.54,35.13-10.69,23.77-28.77,38.42-54.41,43.52-15.31,3.05-30.76,2.84-46.12.83-14.67-1.92-28.18-7.09-39.79-16.6a79.5,79.5,0,0,1-21.28-26.56,92.65,92.65,0,0,1-9-32.23c-.17-1.76-.22-3.55-.22-5.32q0-16.5,0-33C139,273.72,139,269.59,139,269.59Z"/><path d="M379.29,0h40.32c3.13,0,3.45.27,3.93,3.2q4.31,26.63,8.62,53.26c2.45,15,5,30,7.42,45,2.69,16.66,5.26,33.34,7.94,50,2.06,12.83,4.23,25.63,6.31,38.46,2.16,13.37,4.24,26.75,6.38,40.12,1.51,9.43,3.07,18.85,4.6,28.28,2.21,13.7,4.38,27.41,6.62,41.1,1.37,8.33,2.86,16.63,4.22,25s2.53,16.46,3.85,24.68c1.61,10.09,3.27,20.16,4.92,30.25.45,2.73.95,5.46,1.33,8.21.3,2.09-.16,2.63-2.21,2.75-1.22.08-2.44,0-3.67,0h-52c-3.92-.07-3.9-.07-4.54-4q-3.81-23.68-7.61-47.36c-.85-5.26-1.58-10.54-2.44-15.8-.57-3.46-.77-3.58-4.31-3.58l-60,0h-1.67c-4.18,0-4.29-.21-3.63-4.43a131.12,131.12,0,0,0-.1-40.81,134.09,134.09,0,0,0-12-38.64,127.53,127.53,0,0,0-24.08-34.16c-.78-.79-1.53-1.62-2.34-2.37a4.74,4.74,0,0,1-1.39-4.81q4.44-25.26,8.69-50.55c1.92-11.39,3.72-22.79,5.58-34.19.43-2.59,1-3.09,3.81-3,6.11.12,12.22.28,18.33.39,3.79.06,3.92,0,4.34-3.77,2.5-22.67-.71-44.3-12.1-64.35a11.53,11.53,0,0,1-1.31-8.2c1.48-9,2.52-18,3.72-27C335.27.1,335.32,0,339,0h40.33Zm-2.91,74.56a.35.35,0,0,0-.7,0c-1,6.9-3.64,26.14-4.7,33.38q-2.88,19.61-5.85,39.19c-1.61,10.64-3.28,21.27-4.88,31.92-1.29,8.56-2.51,17.12-3.75,25.69-1.12,7.68-2.2,15.38-3.37,23.06-1.81,12-3.69,23.9-5.52,35.86-.27,1.79.23,2.36,2.11,2.58a11.75,11.75,0,0,0,1.33,0q25.31,0,50.63.05c2.62,0,3.1-.61,2.7-3.26-.69-4.72-1.46-9.43-2.16-14.15q-3.75-25.18-7.49-50.38-4.47-30-9-59.92-2.53-17-5-33.91Q379.18,94.33,377.6,84C377.37,82.45,376.8,77.72,376.38,74.56Z"/><path d="M118.66,322c2.53,21.76,12,39,28.65,52.74a25.64,25.64,0,0,1-2.6,1.9,111.27,111.27,0,0,1-31.87,11.43,121.31,121.31,0,0,1-53.52-1.34,74,74,0,0,1-39.18-23.91C9.34,350.34,3.31,335.78,1.07,319.57a102.89,102.89,0,0,1-1-13.92Q0,155.05,0,4.45C0,4.23,0,4,0,3.79.08.42.32.17,3.63.17L52,.2c1.78,0,3.56,0,5.33,0,3,0,3.47.47,3.47,3.49q0,16.16,0,32.32,0,132.95,0,265.88c0,9.44,2.54,18,9.27,24.94,6.87,7.09,15.39,9.4,25,8.28a33.3,33.3,0,0,0,20.47-10Z"/><g id="q8cvon.tif"><path d="M37.16,444.49c.34-.47.58-.77.79-1.09,5.6-8.46,11.22-16.91,16.78-25.39a2.7,2.7,0,0,1,2.65-1.35c1.69.06,3.39,0,5.09,0s1.9.26,1.9,1.75q0,4.47,0,8.94,0,20.67,0,41.34c0,1.91-.2,2.09-2.37,2.09H59c-2.28,0-2.45-.15-2.45-2.23V428.29l-.27-.11c-.24.31-.5.61-.72.94Q47.32,441.56,39.05,454a2,2,0,0,1-2.37,1.09,3.08,3.08,0,0,1-1.46-1.24c-4.21-6.26-8.37-12.54-12.54-18.82l-4.1-6.15a1.62,1.62,0,0,0-.86-.66v40.44c0,1.94-.19,2.11-2.34,2.11-1.23,0-2.45,0-3.67,0-1.37,0-1.78-.37-1.8-1.56s0-2.46,0-3.68V418.83c0-2,.17-2.16,2.42-2.16,1.62,0,3.24,0,4.85,0a2.38,2.38,0,0,1,2.28,1.17q8.4,12.76,16.86,25.48C36.55,443.66,36.8,444,37.16,444.49Z"/><path d="M310.06,459.49V419.12c0-.42,0-.84,0-1.26a1.12,1.12,0,0,1,1.27-1.18c1.63,0,3.25,0,4.88,0a1.06,1.06,0,0,1,1.22,1.09c0,.32,0,.63,0,1v50c0,2-.14,2.08-2.26,2.08-1.33,0-2.66-.07-4,0a3.07,3.07,0,0,1-3.05-1.54c-4.12-6.17-8.31-12.3-12.48-18.44q-7.53-11.08-15.05-22.16c-.19-.28-.39-.55-.59-.82l-.32.07v40.75c0,1.95-.18,2.12-2.24,2.12h-3.74c-1,0-1.46-.46-1.47-1.36,0-.28,0-.56,0-.84V418.81c0-2,.15-2.14,2.33-2.14,1.44,0,2.88.05,4.31,0a2.55,2.55,0,0,1,2.49,1.28c3.84,5.71,7.72,11.4,11.59,17.09l16.15,23.76c.17.26.38.5.57.75Z"/><path d="M388,451.83v9.45c0,2.63,0,5.26,0,7.89,0,1.29-.34,1.6-1.7,1.62s-2.57,0-3.85,0-1.66-.33-1.68-1.64V418.76c0-1.94.15-2.09,2.19-2.09,6.42,0,12.84,0,19.26.05a30.57,30.57,0,0,1,10.55,1.86,14,14,0,0,1,9.4,11.27,22.9,22.9,0,0,1-.61,11.24c-1.63,5-5.43,7.92-10.55,9.41-1,.3-2,.53-3.23.83.31.38.56.71.83,1l13.78,15.86a5.79,5.79,0,0,1,.72.93,1,1,0,0,1-.92,1.63,43.7,43.7,0,0,1-5.49,0,3.62,3.62,0,0,1-2-1.25c-4.3-4.93-8.65-9.83-12.74-14.91-1.66-2.06-3.34-3.07-6.11-2.78A77.91,77.91,0,0,1,388,451.83Zm.05-6.17c.35,0,.6.06.85.06,4,0,7.93.08,11.88-.07a40,40,0,0,0,7.07-.89c3.64-.8,6.14-2.9,7-6.52a17.16,17.16,0,0,0,.09-7.1,8.24,8.24,0,0,0-6.08-6.68,13.28,13.28,0,0,0-3.52-.8c-5.68-.19-11.36-.27-17-.38-.06,0-.12.06-.23.13Z"/><path d="M194.34,440.16H224.7V418.68c0-1.81.22-2,2.21-2h4c1,0,1.55.4,1.54,1.33v50.61c0,2.05-.14,2.18-2.5,2.18h-3.19c-1.76,0-2.08-.28-2.08-1.83q0-9.21,0-18.41v-3.72H194.34V448q0,10.36,0,20.73c0,1.79-.25,2-2.22,2h-4c-1,0-1.54-.45-1.53-1.36,0-.28,0-.56,0-.84V418.82c0-2,.13-2.15,2.41-2.15h3.55c1.47,0,1.81.31,1.82,1.62,0,4.1,0,8.21,0,12.31Z"/><path d="M339.26,446.69v17.53h26.41c2.14,0,2.18,0,2.18,2.27,0,1,0,2,0,2.94a1.18,1.18,0,0,1-1.33,1.36H334.46c-1.91,0-2-.14-2-2.09v-50c0-1.92.11-2,2-2h30.92c1.79,0,1.95.17,2,2,0,.88,0,1.75,0,2.63,0,1.73-.22,2-1.89,2H339.26v17h24.9c1.86,0,2,.18,2,2,0,.95,0,1.89,0,2.84,0,1.26-.29,1.53-1.55,1.55-1.07,0-2.14,0-3.2,0H339.26Z"/><path d="M100.4,416.67c1.19,0,2.38.05,3.56,0a2.14,2.14,0,0,1,2.38,1.54c2.3,6,4.65,11.95,7,17.92q6.3,16.19,12.61,32.37a5.41,5.41,0,0,1,.28.8c.21.9-.22,1.46-1.22,1.48-1.72,0-3.45,0-5.17,0-1.16,0-1.53-.78-1.84-1.6-1.23-3.21-2.47-6.41-3.68-9.63-.85-2.22-.84-2.23-3.45-2.23-7.47,0-14.94,0-22.42,0a1.39,1.39,0,0,0-1.6,1.06c-1.32,3.59-2.72,7.15-4.09,10.72-.59,1.52-.88,1.71-2.69,1.71H76.26c-1.77,0-2.18-.55-1.57-2.11,1.19-3.1,2.41-6.2,3.61-9.31l15.93-40.88c.65-1.67.87-1.81,2.84-1.82ZM89.55,450.81h21.58L100.51,423l-.37.05C96.62,432.24,93.1,441.48,89.55,450.81Z"/><path d="M158.65,415.73a41.49,41.49,0,0,1,14.66,2.44l.42.17c2.22,1,2.37,1.38,1.32,3.45-.35.69-.69,1.4-1.05,2.09-.58,1.13-1.14,1.35-2.34.83a30.3,30.3,0,0,0-12.4-2.37c-10.53.09-17.18,5.27-18.93,14.93a32.42,32.42,0,0,0,.76,15.83c2.23,7,7.57,11.07,15.33,11.84a31.22,31.22,0,0,0,15.34-2.18c1.32-.55,1.82-.37,2.42.82.47.92.92,1.84,1.37,2.77.59,1.23.54,1.75-.82,2.28a46.29,46.29,0,0,1-7,2.22,39.27,39.27,0,0,1-16.37,0c-9.08-1.94-15-7.17-17.54-15.44a37.88,37.88,0,0,1,.5-24.85c3.22-8.65,10.11-13.24,19.7-14.5C155.74,415.86,157.52,415.81,158.65,415.73Z"/><path d="M455,443.55c.3-.44.53-.74.72-1.06,5-8.07,9.94-16.13,14.85-24.23a2.89,2.89,0,0,1,3-1.61c1.28.1,2.57,0,3.85,0,.51,0,1.31.18,1.42.47a2.11,2.11,0,0,1-.24,1.63c-2.09,3.42-4.25,6.8-6.39,10.19-4.34,6.88-8.69,13.75-13,20.64a4,4,0,0,0-.56,2c0,5.75,0,11.51,0,17.26,0,1.69-.28,1.94-2,2h-3.52c-1.36,0-1.67-.32-1.67-1.64,0-5.86,0-11.71,0-17.57a3.74,3.74,0,0,0-.53-1.86q-9.53-15.2-19.12-30.37c-.19-.3-.39-.59-.56-.9-.54-1-.13-1.75,1.06-1.77,1.69,0,3.38,0,5.07,0,1.07,0,1.53.67,2,1.41q5.74,9.35,11.48,18.68,1.77,2.91,3.56,5.81C454.53,442.86,454.75,443.13,455,443.55Z"/><path d="M255.18,443.74v25c0,1.81-.2,2-2.06,2-1.21,0-2.42,0-3.64,0-1.06,0-1.55-.48-1.54-1.48V418.92a11,11,0,0,1,0-1.15,1.1,1.1,0,0,1,1.22-1.09h4.73a1.09,1.09,0,0,1,1.23,1.18c0,.35,0,.7,0,1.06Z"/></g></svg>